<svg xmlns="http://www.w3.org/2000/svg" xmlns:xlink="http://www.w3.org/1999/xlink">
  <symbol id="icon-logo" viewBox="0 0 152 45">
    <path d="M82.4551 0.0825847C42.8124 0.959242 35.5177 5.95893 31.7884 9.80116C30.115 11.5613 28.2435 14.1502 26.5496 19.1362C25.8666 21.1292 25.8256 21.0265 24.6372 26.1426C23.4487 31.2587 22.6974 40.6143 22.2329 44.5661H32.6285C32.8061 42.4087 32.8949 40.3198 33.3115 36.505C35.5587 20.006 40.9819 12.3284 45.3259 8.82176C50.3393 4.50697 65.4273 0.753776 83.787 1.2058C140.287 2.57558 142.281 22.4716 142.281 22.4716H152C150.136 12.2462 139.091 -1.17761 82.4551 0.0825847Z" fill="url(#paint0_linear_516_2014)"/>
    <path d="M38.9323 44.5181V21.3551C42.9485 11.253 50.8169 7.34229 50.8169 7.34229V44.5181H38.9323Z" fill="#164194"/>
    <path fill-rule="evenodd" clip-rule="evenodd" d="M91.5114 18.6428C92.6278 20.0585 93.4395 21.691 93.8952 23.437C94.3959 25.3596 94.6394 27.3402 94.6192 29.3271C94.6146 32.5415 94.2481 35.0368 93.5196 36.8129C92.8433 38.5056 91.8032 40.028 90.4732 41.2715C89.2951 42.4017 87.8569 43.2229 86.2863 43.6618C84.4833 44.1758 82.6212 44.452 80.747 44.4836H66.9363V14.3485H80.7607C83.0124 14.2641 85.2576 14.6416 87.3587 15.4581C88.9838 16.1599 90.4104 17.2539 91.5114 18.6428ZM82.6936 36.9567C83.5835 36.4554 84.2681 35.6548 84.6266 34.6965C85.0978 33.6214 85.3301 31.8817 85.3301 29.4915C85.3301 26.2998 84.8042 24.115 83.766 22.937C82.7232 21.7591 80.9952 21.17 78.5818 21.17H76.2596V37.6073H78.5408C80.4898 37.6073 81.874 37.3904 82.6936 36.9567Z" fill="#164194"/>
    <path d="M113.71 14.3213H103.478L92.2491 44.4289H101.73L108.471 23.6427L115.048 44.4358L124.932 44.4289L113.71 14.3213Z" fill="#164194"/>
    <path d="M144.91 26.841C146.479 27.5711 147.812 28.7293 148.756 30.1832C149.568 31.5339 149.989 33.0851 149.971 34.6624C149.98 36.5649 149.423 38.4268 148.373 40.0114C147.281 41.6655 145.724 42.9575 143.899 43.7235C141.598 44.6385 139.134 45.0697 136.659 44.9906C131.541 44.9951 127.999 44.0066 126.031 42.025C124.039 40.0054 122.849 37.3271 122.685 34.4912L131.523 33.9433C131.617 35.1199 132.022 36.2501 132.698 37.217C133.191 37.8217 133.818 38.3016 134.53 38.6181C135.242 38.9346 136.018 39.0787 136.796 39.0388C137.896 39.0854 138.977 38.7356 139.842 38.0526C140.174 37.7956 140.444 37.467 140.632 37.0913C140.82 36.7154 140.921 36.3019 140.928 35.8815C140.922 35.718 140.901 35.5558 140.866 35.397C140.815 35.1686 140.736 34.9468 140.629 34.7377C140.447 34.3827 140.19 34.0718 139.876 33.8269C139.193 33.2104 137.588 32.6283 135.095 32.0804C131.015 31.1626 128.103 29.9436 126.359 28.423C125.514 27.7122 124.839 26.82 124.384 25.8124C123.929 24.8048 123.705 23.7074 123.73 22.6015C123.74 21.0325 124.216 19.5021 125.096 18.2045C126.095 16.7451 127.502 15.6136 129.139 14.9513C130.466 14.4112 131.866 14.0698 133.292 13.9377C135.692 15.7176 137.657 18.0223 139.036 20.677C138.935 20.553 138.823 20.4383 138.702 20.3346C137.812 19.6736 136.719 19.3486 135.614 19.4168C134.747 19.3524 133.884 19.5947 133.176 20.1017C133.128 20.1388 133.082 20.1779 133.037 20.2189C132.975 20.2762 132.917 20.3373 132.862 20.4015C132.747 20.5361 132.649 20.6851 132.571 20.8451C132.429 21.136 132.356 21.4557 132.356 21.7796C132.365 22.0321 132.431 22.2794 132.55 22.5025C132.668 22.7255 132.835 22.9187 133.039 23.0673C133.486 23.4644 134.528 23.8343 136.167 24.1767C140.234 25.0397 143.148 25.9277 144.91 26.841Z" fill="#164194"/>
    <path d="M63.7261 14.3213H54.4233V44.4289H63.7261V14.3213Z" fill="#164194"/>
    <path d="M16.4608 8.56141C16.4608 8.56141 20.3745 8.39704 24.3635 16.0952C24.7186 16.7732 24.8689 17.1225 25.2241 17.9581C21.8978 23.8002 20.7161 44.559 20.7161 44.559H19.5481C19.5057 44.2211 19.4623 43.8877 19.4184 43.5578C19.3421 42.9853 19.2641 42.4236 19.1861 41.8675C17.5537 30.4093 14.8626 22.8961 12.0895 17.9649V44.5181H0V8.56141H16.4608Z" fill="#164194"/>
  </symbol>
</svg>
